# xmcd
#
# Track frame offsets: 
#        150
#        45360
#        64095
#        133588
#        154550
#        177278
#        193642
#        216399
#        243640
#
# Disc length: 3598 seconds
#
# Revision: 1
# Processed by: cddbd v1.5.1PL0 Copyright (c) Steve Scherf et al.
# Submitted via: ExactAudioCopy v0.95a4
#
DISCID=7c0e0c09
DTITLE=Ambient Orchestra - Meditation in Harmony CD3
DYEAR=2002
DGENRE=Meditative
TTITLE0=Reflexion Of Memory
TTITLE1=Beauty Of Mind
TTITLE2=Diving With Dolphins
TTITLE3=Bird's Flight
TTITLE4=Sweet Harmony
TTITLE5=Happy Dream
TTITLE6=Fresh Air
TTITLE7=Whippy Flavour
TTITLE8=Exiting Journey
EXTD=
EXTT0=
EXTT1=
EXTT2=
EXTT3=
EXTT4=
EXTT5=
EXTT6=
EXTT7=
EXTT8=
PLAYORDER=
